<?xml version="1.0" encoding="utf-8"?>
<!-- Generator: Adobe Illustrator 27.0.0, SVG Export Plug-In . SVG Version: 6.00 Build 0)  -->
<svg version="1.1" id="Livello_1" xmlns="http://www.w3.org/2000/svg" xmlns:xlink="http://www.w3.org/1999/xlink" x="0px" y="0px"
	 viewBox="0 0 333.5 127.1" style="enable-background:new 0 0 333.5 127.1;" xml:space="preserve">
<style type="text/css">
	.st0{fill:#2864AE;}
	.st1{fill:#0B68B0;}
	.st2{fill:url(#SVGID_1_);}
	.st3{fill:url(#SVGID_00000074437667413581245270000017977301465024750762_);}
	.st4{fill:url(#SVGID_00000003801174947035832650000010768029556564444843_);}
</style>
<g>
	<g>
		<path class="st0" d="M55.8,107.7v-6.5h2.9c0.7,0,1.3,0.1,1.9,0.4s1,0.7,1.3,1.1c0.3,0.5,0.4,1.1,0.4,1.7s-0.1,1.2-0.4,1.7
			c-0.3,0.5-0.7,0.9-1.3,1.1c-0.5,0.3-1.2,0.4-1.9,0.4H55.8z M57,106.7h1.6c0.5,0,0.9-0.1,1.3-0.3c0.4-0.2,0.6-0.4,0.8-0.8
			s0.3-0.7,0.3-1.2c0-0.5-0.1-0.9-0.3-1.2c-0.2-0.3-0.5-0.6-0.8-0.8c-0.4-0.2-0.8-0.3-1.3-0.3H57V106.7z"/>
		<path class="st0" d="M72.9,107.8c-0.5,0-1-0.1-1.4-0.3c-0.4-0.2-0.7-0.5-0.9-0.9c-0.2-0.4-0.3-0.8-0.3-1.3c0-0.5,0.1-0.9,0.3-1.3
			c0.2-0.4,0.5-0.7,0.9-0.9c0.4-0.2,0.9-0.3,1.4-0.3c0.5,0,1,0.1,1.4,0.3s0.7,0.5,0.9,0.9s0.3,0.8,0.3,1.3c0,0.5-0.1,0.9-0.3,1.3
			c-0.2,0.4-0.5,0.7-0.9,0.9C73.9,107.7,73.4,107.8,72.9,107.8z M72.9,106.8c0.3,0,0.5-0.1,0.8-0.2c0.2-0.1,0.4-0.3,0.5-0.6
			c0.1-0.2,0.2-0.5,0.2-0.8c0-0.3-0.1-0.6-0.2-0.8c-0.1-0.2-0.3-0.4-0.5-0.5c-0.2-0.1-0.5-0.2-0.8-0.2c-0.3,0-0.5,0.1-0.8,0.2
			s-0.4,0.3-0.5,0.5c-0.1,0.2-0.2,0.5-0.2,0.8c0,0.3,0.1,0.6,0.2,0.8c0.1,0.2,0.3,0.4,0.5,0.6S72.6,106.8,72.9,106.8z"/>
		<path class="st0" d="M94.2,109.6c-0.2,0-0.5,0-0.7-0.1s-0.4-0.2-0.6-0.3l0.5-0.8c0.1,0.1,0.2,0.2,0.4,0.2c0.1,0.1,0.3,0.1,0.5,0.1
			c0.2,0,0.4-0.1,0.5-0.2c0.1-0.1,0.3-0.3,0.4-0.5l0.3-0.6l0.1-0.1l1.9-4.4h1.1l-2.3,5.4c-0.2,0.4-0.3,0.7-0.5,0.9
			c-0.2,0.2-0.4,0.4-0.6,0.5C94.8,109.6,94.5,109.6,94.2,109.6z M95.3,107.9l-2.2-5.2h1.2l1.8,4.3L95.3,107.9z"/>
		<path class="st0" d="M108.6,107.8c-0.5,0-1-0.1-1.4-0.3c-0.4-0.2-0.7-0.5-0.9-0.9c-0.2-0.4-0.3-0.8-0.3-1.3c0-0.5,0.1-0.9,0.3-1.3
			c0.2-0.4,0.5-0.7,0.9-0.9c0.4-0.2,0.9-0.3,1.4-0.3c0.5,0,1,0.1,1.4,0.3s0.7,0.5,0.9,0.9s0.3,0.8,0.3,1.3c0,0.5-0.1,0.9-0.3,1.3
			c-0.2,0.4-0.5,0.7-0.9,0.9C109.6,107.7,109.1,107.8,108.6,107.8z M108.6,106.8c0.3,0,0.5-0.1,0.8-0.2c0.2-0.1,0.4-0.3,0.5-0.6
			c0.1-0.2,0.2-0.5,0.2-0.8c0-0.3-0.1-0.6-0.2-0.8c-0.1-0.2-0.3-0.4-0.5-0.5c-0.2-0.1-0.5-0.2-0.8-0.2c-0.3,0-0.5,0.1-0.8,0.2
			s-0.4,0.3-0.5,0.5c-0.1,0.2-0.2,0.5-0.2,0.8c0,0.3,0.1,0.6,0.2,0.8c0.1,0.2,0.3,0.4,0.5,0.6S108.3,106.8,108.6,106.8z"/>
		<path class="st0" d="M121.8,107.8c-0.4,0-0.8-0.1-1.1-0.2c-0.3-0.2-0.6-0.4-0.8-0.7s-0.3-0.7-0.3-1.2v-2.8h1.2v2.7
			c0,0.4,0.1,0.8,0.3,1c0.2,0.2,0.5,0.3,0.9,0.3c0.3,0,0.5-0.1,0.7-0.2c0.2-0.1,0.4-0.3,0.5-0.5c0.1-0.2,0.2-0.5,0.2-0.8v-2.5h1.2v5
			h-1.1v-1.4l0.2,0.4c-0.2,0.3-0.4,0.6-0.7,0.7C122.5,107.7,122.2,107.8,121.8,107.8z"/>
		<path class="st0" d="M133.3,107.7v-5h1.1v1.4l-0.1-0.4c0.1-0.3,0.4-0.6,0.7-0.8c0.3-0.2,0.7-0.3,1.2-0.3v1.1c0,0-0.1,0-0.1,0
			c0,0-0.1,0-0.1,0c-0.4,0-0.8,0.1-1.1,0.4c-0.3,0.3-0.4,0.6-0.4,1.2v2.4H133.3z"/>
		<path class="st0" d="M156.6,107.8c-0.5,0-1-0.1-1.4-0.3c-0.4-0.2-0.7-0.5-0.9-0.9c-0.2-0.4-0.3-0.8-0.3-1.3c0-0.5,0.1-0.9,0.3-1.3
			c0.2-0.4,0.5-0.7,0.9-0.9c0.4-0.2,0.9-0.3,1.4-0.3c0.5,0,1,0.1,1.4,0.3s0.7,0.5,0.9,0.9c0.2,0.4,0.3,0.8,0.3,1.3
			c0,0.5-0.1,0.9-0.3,1.3c-0.2,0.4-0.5,0.7-0.9,0.9C157.6,107.7,157.1,107.8,156.6,107.8z M156.6,106.8c0.3,0,0.5-0.1,0.8-0.2
			c0.2-0.1,0.4-0.3,0.5-0.6c0.1-0.2,0.2-0.5,0.2-0.8c0-0.3-0.1-0.6-0.2-0.8c-0.1-0.2-0.3-0.4-0.5-0.5c-0.2-0.1-0.5-0.2-0.8-0.2
			c-0.3,0-0.5,0.1-0.8,0.2c-0.2,0.1-0.4,0.3-0.5,0.5c-0.1,0.2-0.2,0.5-0.2,0.8c0,0.3,0.1,0.6,0.2,0.8c0.1,0.2,0.3,0.4,0.5,0.6
			C156.1,106.7,156.3,106.8,156.6,106.8z"/>
		<path class="st0" d="M168.6,107.7l-1.8-5h1.1l1.6,4.4h-0.5l1.6-4.4h1l1.6,4.4h-0.5l1.6-4.4h1l-1.8,5h-1.1l-1.4-3.9h0.3l-1.5,3.9
			H168.6z"/>
		<path class="st0" d="M186.2,102.7c0.4,0,0.8,0.1,1.1,0.2c0.3,0.2,0.6,0.4,0.7,0.7c0.2,0.3,0.3,0.7,0.3,1.2v2.9h-1.2V105
			c0-0.4-0.1-0.8-0.3-1s-0.5-0.3-0.9-0.3c-0.3,0-0.5,0.1-0.7,0.2c-0.2,0.1-0.4,0.3-0.5,0.5c-0.1,0.2-0.2,0.5-0.2,0.8v2.5h-1.2v-5
			h1.1v1.4l-0.2-0.4c0.2-0.3,0.4-0.6,0.8-0.7C185.4,102.8,185.8,102.7,186.2,102.7z"/>
		<path class="st0" d="M208.4,107.8c-0.4,0-0.8-0.1-1.2-0.2c-0.4-0.1-0.7-0.2-0.9-0.4l0.4-0.9c0.2,0.1,0.5,0.3,0.8,0.4
			c0.3,0.1,0.6,0.1,0.9,0.1c0.4,0,0.6,0,0.8-0.1c0.2-0.1,0.2-0.2,0.2-0.4c0-0.1-0.1-0.2-0.2-0.3c-0.1-0.1-0.3-0.1-0.4-0.2
			s-0.4-0.1-0.6-0.1s-0.4-0.1-0.7-0.1s-0.4-0.1-0.6-0.2s-0.3-0.2-0.4-0.4c-0.1-0.2-0.2-0.4-0.2-0.7c0-0.3,0.1-0.6,0.3-0.8
			s0.4-0.4,0.8-0.5c0.3-0.1,0.7-0.2,1.2-0.2c0.3,0,0.7,0,1,0.1c0.3,0.1,0.6,0.2,0.9,0.3l-0.5,0.9c-0.2-0.1-0.5-0.2-0.7-0.3
			c-0.2-0.1-0.5-0.1-0.7-0.1c-0.3,0-0.6,0.1-0.8,0.2c-0.2,0.1-0.3,0.2-0.3,0.4c0,0.1,0.1,0.3,0.2,0.3c0.1,0.1,0.3,0.1,0.4,0.2
			s0.4,0.1,0.6,0.1c0.2,0,0.4,0.1,0.7,0.1s0.4,0.1,0.6,0.2c0.2,0.1,0.3,0.2,0.4,0.4c0.1,0.2,0.2,0.4,0.2,0.7c0,0.3-0.1,0.6-0.3,0.8
			s-0.4,0.4-0.8,0.5S208.9,107.8,208.4,107.8z"/>
		<path class="st0" d="M221.8,102.7c0.4,0,0.8,0.1,1.1,0.2c0.3,0.2,0.6,0.4,0.7,0.7c0.2,0.3,0.3,0.7,0.3,1.2v2.9h-1.2V105
			c0-0.4-0.1-0.8-0.3-1s-0.5-0.3-0.9-0.3c-0.3,0-0.5,0.1-0.7,0.2c-0.2,0.1-0.4,0.3-0.5,0.5c-0.1,0.2-0.2,0.5-0.2,0.8v2.5H219v-6.9
			h1.2v3.3l-0.2-0.4c0.2-0.3,0.4-0.6,0.8-0.7C221,102.8,221.4,102.7,221.8,102.7z"/>
		<path class="st0" d="M233.2,101.9c-0.2,0-0.4-0.1-0.5-0.2c-0.1-0.1-0.2-0.3-0.2-0.5c0-0.2,0.1-0.3,0.2-0.5
			c0.1-0.1,0.3-0.2,0.5-0.2s0.4,0.1,0.5,0.2c0.1,0.1,0.2,0.3,0.2,0.5s-0.1,0.4-0.2,0.5C233.6,101.8,233.5,101.9,233.2,101.9z
			 M232.7,107.7v-5h1.2v5H232.7z"/>
		<path class="st0" d="M245,107.8c-0.6,0-1-0.1-1.5-0.3c-0.4-0.2-0.7-0.5-1-0.9c-0.2-0.4-0.3-0.8-0.3-1.3c0-0.5,0.1-0.9,0.3-1.3
			c0.2-0.4,0.5-0.7,0.9-0.9s0.8-0.3,1.3-0.3c0.5,0,0.9,0.1,1.3,0.3c0.4,0.2,0.7,0.5,0.9,0.9c0.2,0.4,0.3,0.8,0.3,1.4
			c0,0,0,0.1,0,0.2s0,0.1,0,0.2h-4.2v-0.8h3.5l-0.5,0.2c0-0.3-0.1-0.5-0.2-0.8c-0.1-0.2-0.3-0.4-0.5-0.5c-0.2-0.1-0.5-0.2-0.7-0.2
			c-0.3,0-0.5,0.1-0.8,0.2c-0.2,0.1-0.4,0.3-0.5,0.5s-0.2,0.5-0.2,0.8v0.2c0,0.3,0.1,0.6,0.2,0.8c0.1,0.2,0.3,0.4,0.6,0.5
			c0.2,0.1,0.5,0.2,0.9,0.2c0.3,0,0.5,0,0.8-0.1s0.4-0.2,0.6-0.4l0.6,0.7c-0.2,0.3-0.5,0.5-0.9,0.6
			C245.8,107.7,245.4,107.8,245,107.8z"/>
		<path class="st0" d="M255.7,107.7v-6.9h1.2v6.9H255.7z"/>
		<path class="st0" d="M267.8,107.8c-0.5,0-0.9-0.1-1.3-0.3s-0.7-0.5-0.9-0.9c-0.2-0.4-0.3-0.8-0.3-1.3c0-0.5,0.1-1,0.3-1.3
			s0.5-0.7,0.9-0.9s0.8-0.3,1.3-0.3c0.4,0,0.8,0.1,1.1,0.3c0.3,0.2,0.6,0.5,0.8,0.8c0.2,0.4,0.3,0.9,0.3,1.4c0,0.6-0.1,1.1-0.3,1.4
			c-0.2,0.4-0.4,0.7-0.8,0.8C268.6,107.7,268.2,107.8,267.8,107.8z M267.9,106.8c0.3,0,0.5-0.1,0.8-0.2s0.4-0.3,0.5-0.6
			c0.1-0.2,0.2-0.5,0.2-0.8c0-0.3-0.1-0.6-0.2-0.8c-0.1-0.2-0.3-0.4-0.5-0.5s-0.5-0.2-0.8-0.2s-0.5,0.1-0.8,0.2
			c-0.2,0.1-0.4,0.3-0.5,0.5c-0.1,0.2-0.2,0.5-0.2,0.8c0,0.3,0.1,0.6,0.2,0.8c0.1,0.2,0.3,0.4,0.5,0.6
			C267.4,106.7,267.6,106.8,267.9,106.8z M269.4,107.7v-1.2l0-1.3l-0.1-1.3v-3.1h1.2v6.9H269.4z"/>
	</g>
	<g>
		<path class="st1" d="M15.5,92.1V18.6h36.2c8.2,0,15.4,1.5,21.6,4.5c6.2,3,11.1,7.2,14.6,12.6c3.5,5.5,5.2,12,5.2,19.5
			c0,7.6-1.7,14.2-5.2,19.7c-3.5,5.5-8.4,9.7-14.6,12.7c-6.2,3-13.4,4.5-21.6,4.5H15.5z M40.3,72.8h10.4c3.5,0,6.6-0.7,9.2-2
			c2.6-1.3,4.7-3.3,6.1-5.9c1.5-2.6,2.2-5.8,2.2-9.6c0-3.7-0.7-6.9-2.2-9.4c-1.5-2.6-3.5-4.5-6.1-5.9c-2.6-1.3-5.7-2-9.2-2H40.3
			V72.8z"/>
		<path class="st1" d="M207,93.7c-5.9,0-11.5-0.9-16.5-2.8c-5.1-1.9-9.5-4.6-13.2-8c-3.7-3.5-6.6-7.5-8.7-12.2
			c-2.1-4.7-3.1-9.8-3.1-15.3c0-5.6,1-10.7,3.1-15.4c2.1-4.7,4.9-8.7,8.7-12.2c3.7-3.5,8.1-6.1,13.2-8c5.1-1.9,10.6-2.8,16.5-2.8
			c6,0,11.5,0.9,16.6,2.8c5,1.9,9.4,4.6,13.1,8c3.7,3.5,6.6,7.5,8.7,12.2c2.1,4.7,3.1,9.8,3.1,15.4c0,5.5-1,10.6-3.1,15.3
			c-2.1,4.7-5,8.8-8.7,12.2c-3.7,3.5-8.1,6.1-13.1,8C218.6,92.8,213.1,93.7,207,93.7z M207,73.7c2.3,0,4.5-0.4,6.5-1.3
			c2-0.8,3.7-2,5.2-3.6c1.5-1.6,2.7-3.5,3.5-5.8c0.8-2.3,1.3-4.8,1.3-7.7c0-2.9-0.4-5.4-1.3-7.7c-0.8-2.3-2-4.2-3.5-5.8
			c-1.5-1.6-3.3-2.8-5.2-3.6c-2-0.8-4.1-1.3-6.5-1.3c-2.3,0-4.5,0.4-6.5,1.3c-2,0.8-3.7,2-5.2,3.6c-1.5,1.6-2.7,3.5-3.5,5.8
			c-0.8,2.3-1.3,4.8-1.3,7.7c0,2.9,0.4,5.4,1.3,7.7c0.8,2.3,2,4.2,3.5,5.8c1.5,1.6,3.3,2.8,5.2,3.6C202.6,73.3,204.7,73.7,207,73.7z
			"/>
		<path class="st1" d="M283.8,93.7c-6.2,0-12.1-0.7-17.8-2.1c-5.7-1.4-10.5-3.2-14.2-5.5l8-18.1c3.5,2,7.4,3.7,11.7,4.9
			c4.3,1.2,8.5,1.8,12.5,1.8c2.4,0,4.3-0.2,5.6-0.5c1.4-0.3,2.4-0.8,3-1.4c0.6-0.6,0.9-1.3,0.9-2.2c0-1.3-0.7-2.4-2.2-3.1
			c-1.5-0.8-3.4-1.4-5.8-1.9c-2.4-0.5-5.1-1.1-7.9-1.7c-2.9-0.6-5.8-1.4-8.7-2.4c-2.9-1-5.6-2.3-8-3.9c-2.4-1.6-4.4-3.7-5.8-6.3
			c-1.5-2.6-2.2-5.9-2.2-9.8c0-4.5,1.3-8.7,3.8-12.4c2.6-3.7,6.4-6.7,11.4-9c5.1-2.2,11.4-3.4,18.9-3.4c5,0,9.9,0.5,14.7,1.6
			c4.8,1,9.2,2.7,13,4.8l-7.5,17.9c-3.6-1.8-7.2-3.2-10.5-4.1c-3.4-0.9-6.7-1.4-9.9-1.4c-2.4,0-4.3,0.2-5.7,0.6
			c-1.4,0.4-2.4,1-3,1.7c-0.6,0.7-0.9,1.5-0.9,2.3c0,1.3,0.7,2.3,2.2,3c1.5,0.7,3.4,1.3,5.8,1.8c2.4,0.5,5.1,1,8,1.6
			c2.9,0.6,5.8,1.3,8.7,2.3c2.9,1,5.5,2.3,7.9,3.9c2.4,1.6,4.4,3.7,5.8,6.3c1.5,2.6,2.2,5.8,2.2,9.7c0,4.5-1.3,8.6-3.8,12.3
			c-2.6,3.7-6.3,6.8-11.4,9C297.7,92.6,291.4,93.7,283.8,93.7z"/>
		<g>
			
				<linearGradient id="SVGID_1_" gradientUnits="userSpaceOnUse" x1="-486.5732" y1="517.1075" x2="-486.5732" y2="445.4883" gradientTransform="matrix(-1 0 0 -1 -378.3582 536.6303)">
				<stop  offset="0" style="stop-color:#CCE0F4"/>
				<stop  offset="4.823876e-02" style="stop-color:#C4DBF2"/>
				<stop  offset="0.1284" style="stop-color:#AACDED"/>
				<stop  offset="0.2307" style="stop-color:#7EB7E4"/>
				<stop  offset="0.3466" style="stop-color:#1F9CD7"/>
				<stop  offset="0.6997" style="stop-color:#0F75BB"/>
				<stop  offset="0.9944" style="stop-color:#035C98"/>
			</linearGradient>
			<polygon class="st2" points="100.5,91.1 125.7,54.8 125.7,19.5 117.7,19.5 117.7,52.3 90.7,91.1 			"/>
			
				<linearGradient id="SVGID_00000088851892257132911040000013272661868987362730_" gradientUnits="userSpaceOnUse" x1="-528.4965" y1="517.1075" x2="-528.4965" y2="445.4883" gradientTransform="matrix(-1 0 0 -1 -378.3582 536.6303)">
				<stop  offset="0" style="stop-color:#CCE0F4"/>
				<stop  offset="4.823876e-02" style="stop-color:#C4DBF2"/>
				<stop  offset="0.1284" style="stop-color:#AACDED"/>
				<stop  offset="0.2307" style="stop-color:#7EB7E4"/>
				<stop  offset="0.3466" style="stop-color:#1F9CD7"/>
				<stop  offset="0.6997" style="stop-color:#0F75BB"/>
				<stop  offset="0.9944" style="stop-color:#035C98"/>
			</linearGradient>
			<polygon style="fill:url(#SVGID_00000088851892257132911040000013272661868987362730_);" points="132.6,54.8 157.9,91.1 
				167.6,91.1 140.6,52.3 140.6,19.5 132.6,19.5 			"/>
			
				<linearGradient id="SVGID_00000000212988608369983760000001919667112438869677_" gradientUnits="userSpaceOnUse" x1="-507.5526" y1="475.1183" x2="-507.5526" y2="445.4883" gradientTransform="matrix(-1 0 0 -1 -378.3582 536.6303)">
				<stop  offset="0" style="stop-color:#CCE0F4"/>
				<stop  offset="4.823876e-02" style="stop-color:#C4DBF2"/>
				<stop  offset="0.1284" style="stop-color:#AACDED"/>
				<stop  offset="0.2307" style="stop-color:#7EB7E4"/>
				<stop  offset="0.3466" style="stop-color:#1F9CD7"/>
				<stop  offset="0.6997" style="stop-color:#0F75BB"/>
				<stop  offset="0.9944" style="stop-color:#035C98"/>
			</linearGradient>
			<polygon style="fill:url(#SVGID_00000000212988608369983760000001919667112438869677_);" points="129.2,61.5 108.7,91.1 
				118.4,91.1 129.2,75.6 139.9,91.1 149.7,91.1 			"/>
		</g>
	</g>
</g>
</svg>
